<?xml version="1.0" encoding="utf-8"?>
<!-- Generator: Adobe Illustrator 19.2.1, SVG Export Plug-In . SVG Version: 6.00 Build 0)  -->
<svg version="1.1" id="Layer_1" xmlns="http://www.w3.org/2000/svg" xmlns:xlink="http://www.w3.org/1999/xlink" x="0px" y="0px"
	 viewBox="0 0 558.2 180" style="enable-background:new 0 0 558.2 180;" xml:space="preserve">
<style type="text/css">
	.st0{enable-background:new    ;}
	.st1{fill:#FFFFFF;}
	.st2{fill:#F2941B;}
</style>
<g id="形状_4_3_" class="st0">
	<g id="形状_4">
		<g>
			<path class="st1" d="M382.3,79.4c-9.8-5.5-21.2-7.1-31.9-6.8l28.9-41.4c2.6-3.7,4.2-6.1,4.2-7.9V12.5c0-1.8-1.4-3.1-3.2-3.1
				h-55.9c-1.7,0-3.1,1.3-3.1,3.1V25c0,1.9,1.4,3.1,3.2,3.1h29.2l-33.5,48.4c-2,3.1-2,6.6-2,8.6v12.6c0,1.8,2,3.9,3.9,2.9
				c19-10.2,41.8-9.1,59-0.1c2.2,1.1,4.1-1.1,4.1-2.9V84.3C385.1,82.5,384.5,80.7,382.3,79.4z M187.7,7.9c-10,0-19.4,5.1-23.5,16.1
				C159.4,13,152.7,7.9,142,7.9c-10.5,0-18.3,5.1-22.4,16.1h-0.4V12.7c-0.1-1.6-1.4-2.9-3.1-3h-15.9c-1.8,0-3.2,1.4-3.2,3.1v87.4
				c0.1,1.6,1.4,2.8,3,2.9h17c1.8,0,3.2-1.4,3.2-3.1V53.7c0-10.2-0.5-24,11.7-24c12.1,0,10.5,14.3,10.5,24v46.3c0,1.7,1.3,3,3.1,3.1
				h17c1.8,0,3.2-1.4,3.2-3.1V53.7c0-5-0.1-12.3,1.6-16.7c1.8-4.4,6.1-7.2,10.2-7.2c4.9,0,8.7,1.7,10,7.5c0.8,3.5,0.5,12.7,0.5,16.4
				v46.3c0,1.7,1.3,3,3.1,3.1h17c1.8,0,3.2-1.4,3.2-3.1V44.8c0-9.3,1.1-20.1-4.3-27.4C202.7,10.9,194.8,7.9,187.7,7.9z M431.7,7.9
				c-24.6,0-38.2,21.2-38.2,48.3c0,27,13.5,48.6,38.2,48.6c23.8,0,39-21.2,39-47.8C470.6,29.5,456.9,7.9,431.7,7.9z M431.7,86.9
				c-13.4,0-13.1-22.8-13.1-33.5s0.8-27.7,13.4-27.7c5.4,0,9.2,2.4,11.1,8.5c2.3,6.9,2.5,15.8,2.5,23.2
				C445.5,68.5,444.8,86.9,431.7,86.9z M548.8,18.2C544,10.6,536.6,7.9,529,7.9c-11.7,0-18.4,5.7-23.2,17.7h-0.4V12.2
				c-0.4-1.3-1.6-2.4-3-2.4h-15.8c-1.7,0-3.1,1.3-3.2,2.9V100c0,1.7,1.3,3,3.1,3.1h17c1.8,0,3.2-1.4,3.3-3.1v-47
				c0-5.9,0.4-11.2,2.7-16.5c1.9-4.2,5.7-6.9,9.8-6.9c11.7,0,10.6,14,10.6,23.5v47.5c0.2,1.4,1.4,2.6,3,2.7h17.1
				c1.7,0,3.1-1.2,3.2-2.7v-55C553.2,36.9,553.2,25.2,548.8,18.2z M300.5,71.4V44.8c0-11.2,0.8-21.5-7.5-29.3
				C286.4,9.3,275.7,7,267.4,7c-16.1,0-34.3,6.1-38,26.1c-0.4,2.2,1.2,3.2,2.5,3.6l16.5,1.8c1.6-0.1,2.6-1.6,3-3.1
				c1.4-6.9,7.2-10.3,13.6-10.3c3.5,0,7.5,1.3,9.6,4.4c2.4,3.5,2,8.2,2,12.3V44c-9.9,1.1-22.7,1.8-32,5.9
				c-10.6,4.7-18.2,14-18.2,27.9c0,17.7,11.1,26.5,25.5,26.5c12.1,0,18.8-2.9,28.1-12.3c3.1,4.4,4.1,6.7,9.8,11.4
				c1.3,0.7,2.9,0.6,4.1-0.4l0,0c3.3-3,9.6-8.4,13-11.4c1.4-1.1,1.2-3,0-4.5C303.8,82.8,300.5,79.2,300.5,71.4z M273.4,79.5
				c-2.7,4.8-7.1,7.8-11.8,7.8c-6.6,0-10.4-5-10.4-12.3c0-14.5,13-17.1,25.3-17.1v3.7C276.6,68,276.8,73.5,273.4,79.5z M77.4,71.4
				V44.8c0-11.2,0.8-21.5-7.5-29.3C63.3,9.3,52.5,7,44.3,7C28.1,7,10,13.1,6.3,33.1c-0.4,2.2,1.2,3.2,2.5,3.6l16.5,1.8
				c1.6-0.1,2.6-1.6,3-3.1c1.4-6.9,7.2-10.3,13.6-10.3c3.5,0,7.5,1.3,9.6,4.4c2.4,3.5,2,8.2,2,12.3V44c-9.9,1.1-22.7,1.8-32,5.9
				c-10.5,4.8-18,14.1-18,28c0,17.7,11.1,26.5,25.5,26.5c12.1,0,18.8-2.9,28.1-12.3c3.1,4.4,4.1,6.7,9.8,11.4
				c1.3,0.7,2.9,0.6,4.1-0.4l0,0c3.3-3,9.6-8.4,13-11.4c1.4-1.1,1.2-3,0-4.5C80.7,82.8,77.4,79.2,77.4,71.4z M50.4,79.5
				c-2.7,4.8-7.1,7.8-11.8,7.8c-6.6,0-10.4-5-10.4-12.3c0-14.5,13-17.1,25.3-17.1v3.7C53.6,68,53.7,73.5,50.4,79.5z"/>
		</g>
	</g>
</g>
<g id="形状_4_2_" class="st0">
	<g id="形状_4_1_">
		<g>
			<path class="st2" d="M339.9,129.2c-35.9,15.2-74.7,22.6-110.1,22.6c-52.5,0-103.3-14.3-144.4-38.2c-3.6-2.2-6.2,1.6-3.2,4.3
				c38.1,34.4,88.5,55.1,144.3,55.1c39.9,0,86.2-12.6,118.1-36.1C349.8,132.7,345.3,126.8,339.9,129.2z M371.4,111
				c-3.5-4.3-33.5-8-51.8,4.8c-2.9,2-2.3,4.7,0.8,4.3c10.3-1.2,33.2-3.9,37.3,1.2c4.1,5.3-4.5,26.8-8.4,36.5
				c-1.2,2.9,1.3,4.1,3.9,1.9C370.5,145.3,374.9,115.3,371.4,111z"/>
		</g>
	</g>
</g>
</svg>
