<?xml version="1.0" encoding="utf-8"?>
<!-- Generator: Adobe Illustrator 19.2.1, SVG Export Plug-In . SVG Version: 6.00 Build 0)  -->
<svg version="1.1" xmlns="http://www.w3.org/2000/svg" xmlns:xlink="http://www.w3.org/1999/xlink" x="0px" y="0px" viewBox="0 0 13.4 16" style="enable-background:new 0 0 13.4 16;" xml:space="preserve">
<path d="M8.4,5.1c-0.5,0.1-0.9,0.5-0.9,1c0.1,2.3-0.3,4.1-1.2,5.3c-1,1.4-2.7,2.1-5.2,2.3c-0.4,0-0.8,0.4-0.7,0.8
	c0,0.3,0.2,0.6,0.6,0.7c0.9,0.3,1.7,0.4,2.5,0.4c1.6,0,3.1-0.5,4.2-1.6c0.9-0.9,1.6-2.1,1.9-3.5s0.3-3-0.1-4.6C9.4,5.4,9,5,8.4,5.1z
	"/>
<path d="M12.8,5.1L9,0.7C8.8,0.3,8.3,0.3,7.9,0.6c0,0-0.1,0.1-0.1,0.1L4.3,5.5C4,5.9,4.1,6.4,4.5,6.6c0.3,0.2,0.7,0.2,1-0.1l2.2-2.1
	c0,0,0,0,0.1-0.1c0.1-0.2,0.4-0.3,0.7-0.3c0.3,0,0.6,0,0.7,0.2c0,0,0,0,0,0l2.5,2c0.3,0.3,0.8,0.2,1.1-0.1C13.1,5.8,13,5.4,12.8,5.1
	z"/>
</svg>
