<svg id="logo" xmlns="http://www.w3.org/2000/svg" viewBox="0 0 346.9 85.1"><title>bluetooth</title><g id="Bluetooth"><path d="M87.2,45.6h3.3c6,0,8.3,3,8.3,9s-2,9-7.3,9H87.3v-18H87.2Zm0-24.1H91c4.5,0,6.6,2.8,6.6,8.3,0,4.9-2.9,7.5-6.8,7.5H87.1V21.5h0.1ZM77.1,72h16c11.5,0,15.8-7.3,15.8-17,0-7.6-3-11.6-8.1-13.9,4.9-2,7-7.2,7-12.3,0-10-4.8-15.5-15.6-15.5h-15V72H77.1Z" style="fill:#fff"/><polygon points="121.9 72 121.9 13.2 112.8 13.2 112.8 72 121.9 72" style="fill:#fff"/><path d="M146.3,28.2V62.5c-2.1,1.5-3.9,2.8-5.9,2.8s-3.3-1-3.3-3.2V28.2H128V63.6c0,5.7,2.8,9.2,7.6,9.2,5.3,0,7.2-2,11.1-5.2V72h8.6V28.2h-9Z" style="fill:#fff"/><path d="M170.1,44.3V42c0-5,1.8-7.2,5-7.2s5,2.1,5,7.2v2.3h-10Zm19.3-.7c0-9.6-3.7-16.3-14.2-16.3S161,34,161,43.6V56.5c0,9.6,3.7,16.3,14.2,16.3,10.2,0,14-6.3,14.2-15.6h-9.1v1c0,5-1.8,7.2-5,7.2s-5-2.1-5-7.2V51.9h19.2V43.6h-0.1Z" style="fill:#fff"/><path d="M346.9,19.5a6.51,6.51,0,0,1-6.4,6.4,6.32,6.32,0,0,1-6.4-6.4,6.44,6.44,0,0,1,6.4-6.4A6.32,6.32,0,0,1,346.9,19.5Zm-11.5-.1a5.1,5.1,0,0,0,5,5.1,5.05,5.05,0,0,0,0-10.1A5.08,5.08,0,0,0,335.4,19.4Zm6.2,3.6-2-3.1h-0.1V23h-1.2V15.9h2.1c1.7,0,2.4.7,2.4,1.8a1.86,1.86,0,0,1-1.9,2c0.2,0.2.4,0.6,0.7,1l1.5,2.2h-1.5V23Zm-1.2-6.1h-0.8v2.2h0.5a1.26,1.26,0,0,0,1.5-1.2A1,1,0,0,0,340.4,16.9Z" style="fill:#fff"/><path d="M197.4,35.7V63c0,6.7,3.8,9.8,10.7,9.8a17.22,17.22,0,0,0,4.6-.5V64.5h-3c-2.1,0-3.1-1.3-3.1-3.6V35.7h6.1V28.2h-6.1V16.4h-9.1V28.2h-5v7.5h4.9Z" style="fill:#fff"/><path d="M235.6,58.1c0,5-1.8,7.2-5,7.2s-5-2.1-5-7.2V42c0-5,1.8-7.2,5-7.2s5,2.1,5,7.2V58.1h0Zm-19.2-1.6c0,9.6,3.7,16.3,14.2,16.3s14.2-6.7,14.2-16.3V43.6c0-9.6-3.7-16.3-14.2-16.3S216.4,34,216.4,43.6V56.5h0Z" style="fill:#fff"/><path d="M268.7,58.1c0,5-1.8,7.2-5,7.2s-5-2.1-5-7.2V42c0-5,1.8-7.2,5-7.2s5,2.1,5,7.2V58.1h0Zm-19.2-1.6c0,9.6,3.7,16.3,14.2,16.3s14.2-6.7,14.2-16.3V43.6c0-9.6-3.7-16.3-14.2-16.3S249.5,34,249.5,43.6V56.5h0Z" style="fill:#fff"/><path d="M285.6,35.7V63c0,6.7,3.8,9.8,10.7,9.8a17.22,17.22,0,0,0,4.6-.5V64.5h-3c-2.1,0-3.1-1.3-3.1-3.6V35.7h6.1V28.2h-6.1V16.4h-9.1V28.2h-5v7.5h4.9Z" style="fill:#fff"/><path d="M315.6,72V37.6c2.1-1.5,3.9-2.8,5.9-2.8s3.3,1,3.3,3.2V72h9.1V36.6c0-5.7-2.8-9.2-7.6-9.2-5.3,0-7.2,2-10.6,4.9v-19h-9.1V72h9Z" style="fill:#fff"/></g><g id="Bug"><path id="Bug-2" data-name="Bug" d="M34.8,21l7,7-7,7V21h0Zm0,43.1,7-7-7-7v14h0ZM27.3,42.6L12.1,27.3l4.4-4.4L28.6,35V6l22,22L36.1,42.6,50.7,57.2l-22,22V50.1L16.5,62.2l-4.4-4.4L27.3,42.6h0Zm4.1,42.5c18.6,0,31.4-8.8,31.4-42.6S50,0,31.4,0,0,8.8,0,42.6,12.8,85.1,31.4,85.1h0Z" style="fill:#fff"/></g></svg>