<svg id="Layer_1" data-name="Layer 1" xmlns="http://www.w3.org/2000/svg" viewBox="0 0 534 419.25"><title>bob</title><path d="M402.67,172.43c0,73.43-59.86,133.31-133.33,133.38-73.73.06-133.61-59.74-133.6-133.42A133.45,133.45,0,0,1,269.38,39C342.84,39.08,402.67,99,402.67,172.43Zm-133.38-117A117,117,0,0,0,152,172.21c0,64.68,52.32,117.25,116.83,117.29,64.75,0,117.36-52.24,117.43-116.69A117,117,0,0,0,269.28,55.38Z" style="fill:#fff"/><path d="M414.93,294.68V46.46h3.84c9.37,0,18.75,0,28.12,0,28,0.06,50.76,18.78,55.28,46.34,3.2,19.5-3.07,36.21-17.44,49.81-1.81,1.71-3.8,3.22-6,5.09,1.06,0.6,2,1.14,2.88,1.62,22.11,11.38,36.57,29,41.32,53.47,5.64,29.08-3,53.88-25.28,73.49-14.47,12.74-31.78,18.4-51,18.4H414.93Zm15.86-15.51c6,0,11.58.05,17.19,0,32.43-.34,58.3-24.7,60.69-57.1,1.86-25.24-13.13-49.72-36.29-59.88-13.18-5.78-27-5.51-40.86-5a2.16,2.16,0,0,0-.73.51V279.17Zm0.07-216.74v79c1,0.08,1.87.22,2.71,0.2,6.61-.15,13.28.19,19.82-0.61a39.13,39.13,0,0,0,33.28-31.6,40,40,0,0,0-19.51-42C455.7,60.91,443.33,62.47,430.85,62.43Z" style="fill:#fff"/><path d="M24.27,46.46c10.83,0,21.43-.05,32,0a68.51,68.51,0,0,1,9.33.68,54.92,54.92,0,0,1,46.24,48.27c2.07,20.25-5.24,36.64-20.62,49.65-0.94.8-1.91,1.57-3.2,2.62,1.27,0.7,2.3,1.3,3.35,1.84,21.82,11.34,36.05,28.85,40.84,53,5.77,29.07-2.87,53.89-25,73.57C92.68,289,75.26,294.7,55.91,294.68H24.27V46.46Zm16,232.71c6,0,11.69,0,17.41,0,35.66-.2,63.92-31.44,60.14-66.75C115.26,188.67,102.66,172,81.09,162c-12.82-5.93-26.5-5.29-40.12-4.88a2.1,2.1,0,0,0-.71.5V279.17ZM40.19,141.68c6,0,11.59.05,17.19,0a46.36,46.36,0,0,0,6-.57c19-2.74,33.46-19.75,33.4-39.25S82.08,65.29,62.94,63c-7.26-.87-14.69-0.39-22-0.5a2.15,2.15,0,0,0-.72.55v78.62Z" style="fill:#fff"/><path d="M524.82,396.25v13.81H11.55V396.25H524.82Z" style="fill:#fff"/><path d="M11.41,24.48V10.7H524.82V24.48H11.41Z" style="fill:#fff"/><path d="M248.12,346.76a29.54,29.54,0,0,1,59.08,0A29.54,29.54,0,1,1,248.12,346.76Zm47.68,0A18.18,18.18,0,1,0,277.42,365,18.25,18.25,0,0,0,295.8,346.75Z" style="fill:#fff"/><path d="M123.75,346.58a29.59,29.59,0,1,1,29.39,29.77A29.65,29.65,0,0,1,123.75,346.58Zm11.3,0.22a18.28,18.28,0,1,0,18-18.27A18.48,18.48,0,0,0,135.05,346.8Z" style="fill:#fff"/><path d="M52.56,344.17c4.3,2.84,7.32,6.31,8.39,11.26,1.88,8.75-3.84,18.33-12.69,19.29-7.85.86-15.87,0.18-24,.18V319.11a26,26,0,0,1,2.76-.3c4.87,0,9.74.1,14.61,0,6.72-.19,12,2.12,15,8.37C59.31,332.69,58,338.12,52.56,344.17ZM35.22,365.34a73.08,73.08,0,0,0,7.75,0c4.12-.46,7.18-3.74,7.22-7.33,0-3.4-3.25-7.08-7.11-7.52a71.18,71.18,0,0,0-7.86-.05v15Zm0.08-37.15v11.94c4.2,0.62,7.92.43,10.5-3.22a4.64,4.64,0,0,0,0-5.59C43.23,327.58,39.44,327.69,35.29,328.18Z" style="fill:#fff"/><path d="M372.2,319h10.16v22.47c1.24-1.33,1.92-2,2.48-2.68,4.6-5.92,9.22-11.82,13.72-17.82a4.6,4.6,0,0,1,4.35-2.21c2.86,0.17,5.73,0,9.53,0L391.7,346.49l21.63,28.63c-4.6,0-8.5.13-12.37-.1-0.83,0-1.71-1.3-2.35-2.15-4.48-6-8.9-12.07-13.34-18.1-0.65-.89-1.36-1.74-2.61-3.34V375H372.2V319Z" style="fill:#fff"/><path d="M514.18,332.77a13.9,13.9,0,0,1-1.62.21c-2.87,0-5.74,0-9,0-0.93-3.39-2.89-5.68-6.83-5.33a5.68,5.68,0,0,0-5.31,4,4.77,4.77,0,0,0,2.32,5.78,60.45,60.45,0,0,0,6,3.06c2.48,1.16,5.07,2.11,7.5,3.36,7.4,3.79,10.25,10,8,18-4,13.85-17.23,17.29-28,12-4.77-2.33-8.05-8.59-8.42-15.27H489c0.45,0.9,1,2,1.55,3.08a7.36,7.36,0,0,0,8.5,3.87,8.11,8.11,0,0,0,6.35-7,5.92,5.92,0,0,0-3.29-5.87c-2.38-1.34-4.95-2.34-7.43-3.5-2.14-1-4.35-1.9-6.4-3.07-5.7-3.24-8.27-8.27-7.51-14.72A15,15,0,0,1,491,318.61C503.2,314,513.43,322.41,514.18,332.77Z" style="fill:#fff"/><path d="M515.37,288.83a9.28,9.28,0,0,1,4.45,1.17,8.33,8.33,0,0,1,3.39,3.35,9.1,9.1,0,0,1,0,9,8.41,8.41,0,0,1-3.35,3.36,9.1,9.1,0,0,1-9,0,8.45,8.45,0,0,1-3.36-3.36,9.06,9.06,0,0,1,0-9,8.36,8.36,0,0,1,3.39-3.35A9.29,9.29,0,0,1,515.37,288.83Zm0,1.5a7.71,7.71,0,0,0-3.72,1,7,7,0,0,0-2.83,2.8,7.53,7.53,0,0,0,0,7.54,7.11,7.11,0,0,0,2.8,2.8,7.54,7.54,0,0,0,7.51,0,7.06,7.06,0,0,0,2.8-2.8,7.57,7.57,0,0,0,0-7.54,7,7,0,0,0-2.83-2.8A7.72,7.72,0,0,0,515.37,290.33Zm-4,12.57v-9.75h3.35a8.16,8.16,0,0,1,2.48.27,2.41,2.41,0,0,1,1.22.94,2.5,2.5,0,0,1,.46,1.43,2.59,2.59,0,0,1-.76,1.86,3,3,0,0,1-2,.89,2.68,2.68,0,0,1,.83.52A11.12,11.12,0,0,1,518.4,301l1.19,1.91h-1.92l-0.86-1.54a7.87,7.87,0,0,0-1.65-2.27,2,2,0,0,0-1.26-.34H513v4.14H511.4Zm1.57-5.49h1.91a3.07,3.07,0,0,0,1.87-.41,1.4,1.4,0,0,0,.26-1.85,1.44,1.44,0,0,0-.67-0.51,5,5,0,0,0-1.58-.17H513v2.94Z" style="fill:#fff"/></svg>