<?xml version="1.0" encoding="utf-8"?>
<!-- Generator: Adobe Illustrator 17.1.0, SVG Export Plug-In . SVG Version: 6.00 Build 0)  -->
<!DOCTYPE svg PUBLIC "-//W3C//DTD SVG 1.1//EN" "http://www.w3.org/Graphics/SVG/1.1/DTD/svg11.dtd">
<svg version="1.1" id="Layer_1" xmlns="http://www.w3.org/2000/svg" xmlns:xlink="http://www.w3.org/1999/xlink" x="0px" y="0px"
	 viewBox="-107 24 467 344" enable-background="new -107 24 467 344" xml:space="preserve">
<g>
	<polyline fill="#E8D841" points="338,26 290.5,94.4 250.3,167.7 198.6,230.9 170.3,195.4 121.1,271.5 70.2,342.9 92.5,282.7 
		114.6,218.3 125,150.4 147.3,86.5 187.5,129.4 222.2,26.4 	"/>
</g>
<g>
	<g>
		<g>
			<g>
				<g>
					<path fill="#262626" d="M267.1,136.2l-1.5,1.9C265.9,138.1,266.2,137.7,267.1,136.2z"/>
					<path fill="#262626" d="M137.7,109.7c0-0.2,0.1-0.4,0.1-0.5C137.8,109.5,137.7,109.6,137.7,109.7z"/>
					<path fill="#262626" d="M211.7,209.5C211.7,209.4,211.8,209.4,211.7,209.5c0.2-0.3,0.3-0.5,0.3-0.6L211.7,209.5z"/>
					<path fill="#262626" d="M278.1,109.1c-17.5,26.3-22.8,32.8-40.5,60.3c-8.6,13-17.6,27-25.9,39.9c-1.6,3.1-4.2,7-6.9,11.1
						c-1.4,2-2.8,4.1-4,6.2l-0.4,0.6l-0.1,0.1l-0.1,0.3c-0.1,0.2-0.2,0.4-0.3,0.7c-0.1,0-0.1-0.1-0.2-0.1c0,0-0.1-0.3-0.2-0.5
						c-0.1-0.2-0.1-0.4-0.1-0.4s-0.1,0-0.1-0.1l0,0l0,0l-0.1-0.1l-0.4-0.4c-0.5-0.6-1-1.3-1.5-1.9c-1-1.3-1.9-2.5-2.8-3.8l0.2,0.1
						c-2.9-3.3-5.7-7.4-7.2-9l0.2,0.1l-3.3-4.2l0.6,0.6c-2.1-2.5-4.2-5.3-6.4-7.8c-1.3-1.6-2.4-3.2-3.7-4.8
						c-1.8-2.3-3.5-4.7-5.2-6.9c-1,1.4-1.8,2.8-2.7,4.1l0.7-0.3c-1.6,2.4-3.1,4.6-4.5,6.7c-0.8,1.4-1.7,2.5-2.4,3.8
						c-1.5,2.3-2.9,4.6-4.1,6.6c-2.5,4.2-5.1,8.3-9,13.7v-0.2c-8.2,15-15.3,22.2-23.8,37.6c1.1-1.9-0.7,0.6-0.7,0.4
						c-4.2,6.9-8.9,14.2-8.2,14.7c-3.2,5-2.9,3.9-3.5,4.3c0.3,0.2-2.2,4.6-4.8,8.5l1.1-1.9l-7,11.1l2-1.8c-3.9,5.7-1.7,1-5.2,6.7
						l0.5,0.2c-2.7,4-5,7.1-7.3,10.2c-1.2,1.5-2.3,3-3.5,4.7c-0.6,0.8-1.2,1.6-1.9,2.4l-0.2,0.3c-0.1,0.1-0.2,0.2-0.2,0.2l-0.2,0.2
						c-0.1,0.1-0.2,0.2-0.3,0.3c-1.3,1.9-2.4,3.7-4,6.4c0.4-2,1-3.9,1.4-5.9l0.4-1.9c0.4-1.7,1-3.5,1.4-5.2c1.1-3.7,2-7.4,3.1-11
						c4-14.6,8.2-28.8,12.4-42.2l0.8-1.4c0.8-0.5,1.8-9.9,2.8-11l0.8-4.1c0.4-1.1,1.3-3.5,0.8-1.4c1.1-3.7,1.1-3.8,1.6-6.6l1.6-3.9
						c4.6-14.6,7.3-27.5,12-42.9c6.2-18.5,15.5-53.8,20.9-74.1c1.2-4.8,2.5-9.8,3.9-14.7c0.7-2.4,1.5-5,2.2-7.5
						c0.2-0.6,0.4-1.2,0.5-1.8l0.5-1.6c0.6,0.7,1.3,1.6,2,2.3c1.6,1.7,3.1,3.5,4.7,5.2c3.2,3.6,6.5,7.2,9.6,10.8
						c3.3,3.6,6.5,7.2,9.8,10.6c1.6,1.7,3.3,3.5,4.9,5.2c2.9,3,5.6,5.8,8.4,8.8c1.2-3.2,2.4-6.4,3.6-9.5c0.2-0.4,0.4-1,0.6-1.5
						c0.2-0.4,0.3-0.7,0.4-1.2c0.2-0.7,0.4-1.4,0.3-1.4l10.4-25.8c0,0,50.2-124.8,7-32l0.1-0.7c-5.9,14-9.6,22.8-12.8,32.8
						c-1.5,1.2-4.8,11.6-6.4,14.7l0.1-0.3c-1,3-2.1,5.9-3.4,8.9l-1,2.2c-0.2,0.4-0.2,0.4-0.3,0.6l-0.2,0.4c-0.2,0.5-0.5,1-0.7,1.5
						c-0.4-0.4-0.7-0.8-1.1-1.2c-0.2-0.2-0.3-0.3-0.5-0.5c-0.5-0.5-1.1-1-1.5-1.5c0.1,0.1,0.3,0.1,0.6,0.3c0.1,0.1,0.3,0.2,0.5,0.4
						c0.1,0.1,0.3,0.3,0.6,0.5c-1.1-1.1-2.2-2.2-3.3-3.4c-1.2-1.3-2.4-2.5-3.5-3.6c-2.1-2.2-3.7-4-3.6-4.3c-3.7-3.9-8-8.5-12.2-12.9
						c-5.5-5.8-11-11.6-15.8-16.6c-1.1,3.9-2,7.5-2.9,10.7c-0.1,0.4-0.2,0.7-0.3,1.2c-0.1,0.3-0.1,0.6-0.2,1
						c-0.1,0.4-0.2,0.8-0.3,1.4c-0.2,0.8-0.3,1.7-0.5,2.4v-0.7c-1.1,5.6-1.9,7.1-3.4,13.3c-0.2,0.3-0.3,0.7-0.3,0.6
						c-1.2,6.2-4.9,17.4-6,22.3l-0.4,0.2l-3.3,11.9l1.4-4.3c0.5,1.8-3.2,8.8-5,17.5c-2.4,8-2.8,16.9-5.6,25
						c-0.7,4.1,0.3-3.7-1.1,2.3c-0.5,0.1,0.5-2.9-0.3-1.5c-1.5,5.9-3.3,9.4-5,16.8l-0.4,0.2c-2,9.5-5.6,17.6-6.7,24
						c-2.4,9.8-3,6.2-5.1,16.4l-1.6,3.8c-1.3,4.2-0.2,3.3-1.9,8c-0.2-0.4-2,5.9-1.5,3.1c-3.6,10.7-5.6,22.2-10.5,36.2
						c-0.2,3.3-2.7,10.4-2.9,12.8c-0.4,0.3-4.1,14.4-2.4,6.2c0.1-0.7,0.5-1.9,0.6-1.8l-0.1-1.1c-0.7,2-1.4,3.9-1.9,5.8
						c-0.3,1-0.5,1.9-0.7,2.9c-0.3,1.1-0.5,2.2-0.8,3.3c-0.8,3.4-1.7,6.7-2.7,10.1c-0.8,3.3-1.8,6.6-2.9,10.3c1.5-4.6,3-10,2.3-6.8
						l-3.7,12.9l0.1-1.7l-6.3,21l1.8-5c-1.1,3.3-2,6.4-3,9.2c1.1-1.5,2.1-2.9,3.5-5c1.4-2.1,3.3-5.1,5.7-9.3
						c1.7-2.9,0.5-1.4-0.1-0.5c-0.7,0.8-1.1,1.2,1.8-3.3c3.4-5.1,7.6-11.5,12.2-18.1c3.6-5.4,7.3-11,10.8-16.2
						c-0.8,0.5,0.5-1.7,1.9-3.9h0.5c5.1-8.9,2.8-2.7,8-11.6l-0.2,1l0.7-2.8c4.3-8.2,3.4-3.7,8-12.9c-2.1,3.4-1.8,1.2,1.1-3l-0.3,1.3
						c1.4-2.3,1.8-3.2,2.9-4.7c-0.7,1.5,0,1.1,2.1-2.4l-1.1,2.5l3.5-6.8c3.5-4.8,8.2-12.9,10-14.6c0,0,7.1-10.5,8.2-13.4
						c-1.1,2.3,2.9-3.5,2.1-1.6c1.4-3,6.4-11.3,8.9-14.4l-0.3,0.6c4-5.9,7.3-11.2,10.4-16.3c1.6-2.5,3.1-5.1,4.7-7.6
						c0.8-1.3,1.6-2.5,2.4-3.8c0.5-0.8,0.4-0.6,0.6-0.8c0.1-0.1,0.2-0.2,0.2-0.2c-0.1-0.2,0-0.5,0.2-0.8c0.2,0.1,0.5,0.4,0.4-0.2
						c0.2,0.2,0.3,0.4,0.5,0.6l0.3,0.3c0.2,0.3,0.4,0.5,0.6,0.8c1,1.3,1.9,2.5,2.8,3.7c1.7,2.4,3.4,4.7,4.8,6.8
						c3,4.1,5.3,7.2,7.5,8.6c3.7,4.8,4,6,5.8,8.6l-1-1.1c3.6,4.6,6.3,8.1,8,10.2c2.2-3.5,4.1-6.4,5.9-9.1c1.2-1.8,2.4-3.6,3.9-5.9
						c2.1-3.6,1.8-4.7,6.2-10.8c-1.1,2.2,0.5-0.4,2.1-2.8c-1,1.6-1.2,2.1,1.1-1c0.2-0.5,0.6-1.2,1-1.9c0,0,0.1-0.1,0.1,0
						c2.5-4,1.9-3.4,0.7-1.6c0-0.1-0.1,0-0.6,0.5c3.1-3.8,7.4-11.5,8.3-11.7c7.6-12,12.7-20.8,19.1-30.8c1-1-0.3,1.5-2.1,4.5
						l4.6-7.1c0.3,0.3-2.4,4.1-3.8,6.4c6-8,10.7-17.6,17.7-27l1.1-2.2l0.4-0.5c-0.2-0.1,1.1-2.4,2-3.9c1.2-1.2,0.6,0.5,3.8-4.2
						c2.9-3.6,7-11,10.1-16.1c-1.8,2.7-1.4,1.7-0.7,0.4c1.6-2.4,2.8-3.6,3.9-5.6h0.5c-1.1,0.7,3.7-6.6,4.1-7.6
						c1.2-1.2-2.2,3.9-2.3,4.7c6.4-9.8,3.2-4.9,9.5-14.6c3.1-5.4-1.1,0.6,0.2-2c3-4.7,5.5-9.3,9.2-14.4l-1.5,1.4
						c5.3-8.8,8.8-13.9,12.9-19.4C356.3-9.8,322,40,322,40C305,65.1,297.5,78.9,278.1,109.1z"/>
				</g>
			</g>
		</g>
	</g>
</g>
</svg>
